<?xml version="1.0" encoding="utf-8"?><!DOCTYPE svg PUBLIC "-//W3C//DTD SVG 1.1//EN" "http://www.w3.org/Graphics/SVG/1.1/DTD/svg11.dtd"><svg version="1.1" xmlns="http://www.w3.org/2000/svg" xmlns:xlink="http://www.w3.org/1999/xlink" width="32" height="32" viewBox="0 0 32 32" data-tags="envelope,mail,email,contact"><g fill="#fff" transform="scale(0.03125 0.03125)"><path d="M928 128h-832c-53.024 0-96 42.976-96 96v576c0 52.992 42.976 96 96 96h832c53.024 0 96-43.008 96-96v-576c0-53.024-42.976-96-96-96zM87.712 831.68l-23.392-23.424 263.968-263.936 23.392 23.424-263.968 263.936zM936.288 831.68l-263.968-263.936 23.392-23.424 263.968 263.936-23.392 23.424zM544 618.4v21.6h-64v-21.6l-415.904-385.6 40.704-40.704 407.2 377.536 407.2-377.536 40.704 40.704-415.904 385.6z" /></g></svg>